HIERARCHY
ROOT Hip
{
	OFFSET -0.196426 0.310606 0.158975
	CHANNELS 6 Xposition Yposition Zposition Xrotation Yrotation Zrotation
	JOINT LowerSpine
	{
		OFFSET -0.023841 0.135059 0.268999
		CHANNELS 6 Xposition Yposition Zposition Xrotation Yrotation Zrotation
		JOINT MiddleSpine
		{
			OFFSET -0.018036 -0.028389 0.234637
			CHANNELS 3 Xrotation Yrotation Zrotation
			JOINT Chest
			{
				OFFSET -0.024091 0.037135 0.295503
				CHANNELS 3 Xrotation Yrotation Zrotation
				JOINT Neck
				{
					OFFSET -0.051354 -0.035883 0.657357
					CHANNELS 6 Xposition Yposition Zposition Xrotation Yrotation Zrotation
					JOINT Head
					{
						OFFSET -0.026351 -0.128343 0.363488
						CHANNELS 3 Xrotation Yrotation Zrotation
						End Site
						{
							OFFSET -0.004101 -0.005503 0.053125
						}
					}
				}
				JOINT LClavicle
				{
					OFFSET 0.015332 -0.241294 0.624254
					CHANNELS 6 Xposition Yposition Zposition Xrotation Yrotation Zrotation
					JOINT LShoulder
					{
						OFFSET 0.338625 0.147377 0.129065
						CHANNELS 3 Xrotation Yrotation Zrotation
						JOINT LForearm
						{
							OFFSET 0.824499 0.022925 0.062850
							CHANNELS 3 Xrotation Yrotation Zrotation
							JOINT LHand
							{
								OFFSET 0.687508 0.016958 0.056721
								CHANNELS 3 Xrotation Yrotation Zrotation
								JOINT LFinger1
								{
									OFFSET 0.266567 -0.070745 0.039057
									CHANNELS 6 Xposition Yposition Zposition Xrotation Yrotation Zrotation
									JOINT LFinger11
									{
										OFFSET 0.102023 -0.013913 -0.017621
										CHANNELS 3 Xrotation Yrotation Zrotation
										JOINT LFinger12
										{
											OFFSET 0.069650 -0.009502 -0.012034
											CHANNELS 3 Xrotation Yrotation Zrotation
											End Site
											{
												OFFSET 0.051925 -0.006143 -0.011641
											}
										}
									}
								}
								JOINT LFinger2
								{
									OFFSET 0.268605 -0.003315 0.047808
									CHANNELS 6 Xposition Yposition Zposition Xrotation Yrotation Zrotation
									JOINT LFinger21
									{
										OFFSET 0.123236 0.003031 0.010152
										CHANNELS 3 Xrotation Yrotation Zrotation
										JOINT LFinger22
										{
											OFFSET 0.068308 0.001691 0.005647
											CHANNELS 3 Xrotation Yrotation Zrotation
											End Site
											{
												OFFSET 0.053551 0.001210 0.000458
											}
										}
									}
								}
								JOINT LFinger3
								{
									OFFSET 0.253505 0.064209 0.042558
									CHANNELS 6 Xposition Yposition Zposition Xrotation Yrotation Zrotation
									JOINT LFinger31
									{
										OFFSET 0.112133 0.009534 0.003707
										CHANNELS 3 Xrotation Yrotation Zrotation
										JOINT LFinger32
										{
											OFFSET 0.063897 0.005445 0.002133
											CHANNELS 3 Xrotation Yrotation Zrotation
											End Site
											{
												OFFSET 0.053376 0.003980 -0.002124
											}
										}
									}
								}
								JOINT LFinger4
								{
									OFFSET 0.236750 0.110617 0.008292
									CHANNELS 6 Xposition Yposition Zposition Xrotation Yrotation Zrotation
									JOINT LFinger41
									{
										OFFSET 0.069454 0.021353 -0.007512
										CHANNELS 3 Xrotation Yrotation Zrotation
										JOINT LFinger42
										{
											OFFSET 0.050930 0.015666 -0.005491
											CHANNELS 3 Xrotation Yrotation Zrotation
											End Site
											{
												OFFSET 0.051055 0.013499 -0.008974
											}
										}
									}
								}
								JOINT LFinger0
								{
									OFFSET 0.059407 -0.037723 -0.040263
									CHANNELS 6 Xposition Yposition Zposition Xrotation Yrotation Zrotation
									JOINT LFinger01
									{
										OFFSET 0.107181 -0.073029 -0.031047
										CHANNELS 3 Xrotation Yrotation Zrotation
										JOINT LFinger02
										{
											OFFSET 0.070676 -0.045678 -0.022267
											CHANNELS 3 Xrotation Yrotation Zrotation
											End Site
											{
												OFFSET 0.044220 -0.027162 -0.013275
											}
										}
									}
								}
							}
						}
					}
				}
				JOINT RClavicle
				{
					OFFSET -0.104252 -0.243548 0.614788
					CHANNELS 6 Xposition Yposition Zposition Xrotation Yrotation Zrotation
					JOINT RShoulder
					{
						OFFSET -0.360058 0.134212 0.073782
						CHANNELS 3 Xrotation Yrotation Zrotation
						JOINT RForearm
						{
							OFFSET -0.824397 -0.008202 -0.067661
							CHANNELS 3 Xrotation Yrotation Zrotation
							JOINT RHand
							{
								OFFSET -0.688020 -0.009008 -0.052152
								CHANNELS 3 Xrotation Yrotation Zrotation
								JOINT RFinger1
								{
									OFFSET -0.266549 -0.080810 -0.003138
									CHANNELS 6 Xposition Yposition Zposition Xrotation Yrotation Zrotation
									JOINT RFinger11
									{
										OFFSET -0.097388 -0.017677 -0.033404
										CHANNELS 3 Xrotation Yrotation Zrotation
										JOINT RFinger12
										{
											OFFSET -0.066485 -0.012071 -0.022812
											CHANNELS 3 Xrotation Yrotation Zrotation
											End Site
											{
												OFFSET -0.049180 -0.008052 -0.019643
											}
										}
									}
								}
								JOINT RFinger2
								{
									OFFSET -0.272465 -0.013529 0.004983
									CHANNELS 6 Xposition Yposition Zposition Xrotation Yrotation Zrotation
									JOINT RFinger21
									{
										OFFSET -0.123327 -0.001624 -0.009364
										CHANNELS 3 Xrotation Yrotation Zrotation
										JOINT RFinger22
										{
											OFFSET -0.068362 -0.000886 -0.005170
											CHANNELS 3 Xrotation Yrotation Zrotation
											End Site
											{
												OFFSET -0.052964 -0.000800 -0.007973
											}
										}
									}
								}
								JOINT RFinger3
								{
									OFFSET -0.259272 0.054529 0.001970
									CHANNELS 6 Xposition Yposition Zposition Xrotation Yrotation Zrotation
									JOINT RFinger31
									{
										OFFSET -0.111598 0.005311 -0.014002
										CHANNELS 3 Xrotation Yrotation Zrotation
										JOINT RFinger32
										{
											OFFSET -0.063596 0.003038 -0.007957
											CHANNELS 3 Xrotation Yrotation Zrotation
											End Site
											{
												OFFSET -0.052490 0.001982 -0.010503
											}
										}
									}
								}
								JOINT RFinger4
								{
									OFFSET -0.239088 0.101635 -0.029372
									CHANNELS 6 Xposition Yposition Zposition Xrotation Yrotation Zrotation
									JOINT RFinger41
									{
										OFFSET -0.068160 0.018755 -0.018400
										CHANNELS 3 Xrotation Yrotation Zrotation
										JOINT RFinger42
										{
											OFFSET -0.049984 0.013760 -0.013476
											CHANNELS 3 Xrotation Yrotation Zrotation
											End Site
											{
												OFFSET -0.049479 0.011602 -0.016931
											}
										}
									}
								}
								JOINT RFinger0
								{
									OFFSET -0.050879 -0.039803 -0.048990
									CHANNELS 6 Xposition Yposition Zposition Xrotation Yrotation Zrotation
									JOINT RFinger01
									{
										OFFSET -0.098149 -0.076908 -0.047305
										CHANNELS 3 Xrotation Yrotation Zrotation
										JOINT RFinger02
										{
											OFFSET -0.064529 -0.048231 -0.032966
											CHANNELS 3 Xrotation Yrotation Zrotation
											End Site
											{
												OFFSET -0.040531 -0.028763 -0.019983
											}
										}
									}
								}
							}
						}
					}
				}
			}
		}
	}
	JOINT RThigh
	{
		OFFSET -0.315444 0.010757 0.094209
		CHANNELS 6 Xposition Yposition Zposition Xrotation Yrotation Zrotation
		JOINT RShin
		{
			OFFSET 0.071212 0.087726 -1.202137
			CHANNELS 3 Xrotation Yrotation Zrotation
			JOINT RFoot
			{
				OFFSET 0.091663 0.086552 -1.178708
				CHANNELS 3 Xrotation Yrotation Zrotation
				JOINT RToe
				{
					OFFSET 0.016741 -0.262163 -0.148981
					CHANNELS 3 Xrotation Yrotation Zrotation
					End Site
					{
						OFFSET 0.001311 -0.053414 -0.003820
					}
				}
			}
		}
	}
	JOINT LThigh
	{
		OFFSET 0.296070 0.022303 0.142620
		CHANNELS 6 Xposition Yposition Zposition Xrotation Yrotation Zrotation
		JOINT LShin
		{
			OFFSET 0.115488 0.088562 -1.198641
			CHANNELS 3 Xrotation Yrotation Zrotation
			JOINT LFoot
			{
				OFFSET 0.091663 0.086551 -1.178707
				CHANNELS 3 Xrotation Yrotation Zrotation
				JOINT LToe
				{
					OFFSET 0.016741 -0.262166 -0.148982
					CHANNELS 3 Xrotation Yrotation Zrotation
					End Site
					{
						OFFSET 0.001311 -0.053414 -0.003820
					}
				}
			}
		}
	}
}
MOTION
Frames: 4
Frame Time: 0.041667
-0.058155 1.296052 1.468089 8.244210 23.807009 48.369504 -0.023841 0.135059 0.268999 0.000000 -0.000008 0.000009 -2.274723 6.642184 -2.977465 -6.516245 22.497596 -9.206689 -0.051354 -0.035883 0.657358 -0.600247 0.013909 -0.039215 5.484985 -1.228111 0.351246 0.015333 -0.241294 0.624254 0.195494 -10.904042 -0.763465 -69.585025 -28.165417 -13.151152 2.338001 1.351918 -24.962642 -94.744190 3.544262 1.493023 0.266566 -0.070746 0.039057 0.000004 -0.000004 0.000006 -0.000001 -0.000005 -0.000000 0.000005 0.000004 0.000002 0.268605 -0.003315 0.047808 -0.000002 0.000012 -0.000000 0.000001 0.000002 0.000004 0.000003 0.000009 -0.000004 0.253505 0.064208 0.042557 -0.000001 0.000003 0.000002 -0.000003 -0.000004 -0.000002 0.000002 0.000001 -0.000002 0.236750 0.110617 0.008291 0.000002 0.000009 0.000004 -0.000003 0.000005 0.000006 -0.000001 -0.000000 0.000002 0.059406 -0.037724 -0.040263 0.000013 0.000012 -0.000015 -0.000002 0.000003 -0.000002 -0.000004 -0.000003 -0.000000 -0.104252 -0.243548 0.614789 -1.335431 28.575930 2.429012 -79.005174 54.051966 73.191972 -0.041162 -0.039221 0.531580 -0.000000 -0.000009 -0.000007 -0.266549 -0.080809 -0.003138 0.000005 -0.000001 -0.000011 -0.000003 0.000001 0.000012 0.000001 0.000020 -0.000004 -0.272465 -0.013528 0.004984 0.000009 0.000007 -0.000004 0.000005 -0.000005 -0.000006 0.000010 0.000008 -0.000005 -0.259270 0.054529 0.001970 0.000008 0.000003 -0.000005 0.000001 0.000002 -0.000000 0.000001 -0.000002 0.000000 -0.239087 0.101635 -0.029373 0.000011 0.000005 -0.000007 0.000003 0.000002 0.000004 -0.000009 -0.000012 0.000007 -0.050879 -0.039802 -0.048990 0.000015 0.000009 -0.000004 -0.000008 -0.000008 -0.000006 -0.000003 -0.000014 0.000018 -0.353370 -0.001070 0.111676 -88.711323 44.489438 -11.151771 81.173185 4.912634 3.570151 0.872225 -0.179826 0.422019 -0.000010 -0.000018 -0.000003 0.280990 -0.017458 0.141545 -109.357790 -56.029930 -14.204993 81.567321 4.944572 3.567471 -0.563603 0.144273 -0.312139 -0.175449 -0.003321 -0.013892 
-0.058155 1.296052 1.468089 8.244210 23.807009 48.369504 -0.023841 0.135059 0.268999 0.000000 -0.000008 0.000009 -2.274723 6.642184 -2.977465 -6.516245 22.497596 -9.206689 -0.051354 -0.035883 0.657358 -0.600247 0.013909 -0.039215 5.484985 -1.228111 0.351246 0.015333 -0.241294 0.624254 0.195494 -10.904042 -0.763465 -69.585025 -28.165417 -13.151152 2.338001 1.351918 -24.962642 -94.744190 3.544262 1.493023 0.266566 -0.070746 0.039057 0.000004 -0.000004 0.000006 -0.000001 -0.000005 -0.000000 0.000005 0.000004 0.000002 0.268605 -0.003315 0.047808 -0.000002 0.000012 -0.000000 0.000001 0.000002 0.000004 0.000003 0.000009 -0.000004 0.253505 0.064208 0.042557 -0.000001 0.000003 0.000002 -0.000003 -0.000004 -0.000002 0.000002 0.000001 -0.000002 0.236750 0.110617 0.008291 0.000002 0.000009 0.000004 -0.000003 0.000005 0.000006 -0.000001 -0.000000 0.000002 0.059406 -0.037724 -0.040263 0.000013 0.000012 -0.000015 -0.000002 0.000003 -0.000002 -0.000004 -0.000003 -0.000000 -0.104252 -0.243548 0.614789 -1.335431 28.575930 2.429012 -79.005174 54.051966 73.191972 -0.041162 -0.039221 0.531580 -0.000000 -0.000009 -0.000007 -0.266549 -0.080809 -0.003138 0.000005 -0.000001 -0.000011 -0.000003 0.000001 0.000012 0.000001 0.000020 -0.000004 -0.272465 -0.013528 0.004984 0.000009 0.000007 -0.000004 0.000005 -0.000005 -0.000006 0.000010 0.000008 -0.000005 -0.259270 0.054529 0.001970 0.000008 0.000003 -0.000005 0.000001 0.000002 -0.000000 0.000001 -0.000002 0.000000 -0.239087 0.101635 -0.029373 0.000011 0.000005 -0.000007 0.000003 0.000002 0.000004 -0.000009 -0.000012 0.000007 -0.050879 -0.039802 -0.048990 0.000015 0.000009 -0.000004 -0.000008 -0.000008 -0.000006 -0.000003 -0.000014 0.000018 -0.353370 -0.001070 0.111676 -88.711323 44.489438 -11.151771 81.173185 4.912634 3.570151 0.872225 -0.179826 0.422019 -0.000010 -0.000018 -0.000003 0.280990 -0.017458 0.141545 -109.357790 -56.029930 -14.204993 81.567321 4.944572 3.567471 -0.563603 0.144273 -0.312139 -0.175449 -0.003321 -0.013892 
-0.058448 1.299102 1.479720 8.045895 24.295391 48.393178 -0.023841 0.135059 0.268999 0.000001 -0.000009 0.000009 -2.111572 6.483631 -2.893461 -6.063644 21.922887 -8.998457 -0.051354 -0.035883 0.657358 -0.663651 0.464511 0.120365 5.083285 -0.984995 0.332749 0.015332 -0.241294 0.624254 0.190680 -10.490599 -0.734787 -68.486525 -28.273937 -12.209944 2.294763 1.340114 -24.528459 -94.942013 3.171604 3.867254 0.266567 -0.070745 0.039056 0.000005 -0.000005 0.000006 0.000003 -0.000004 -0.000000 -0.000003 0.000004 -0.000003 0.268604 -0.003314 0.047807 -0.000004 0.000006 0.000001 0.000001 0.000004 -0.000000 0.000002 0.000005 -0.000003 0.253504 0.064208 0.042557 -0.000001 0.000002 -0.000001 -0.000005 -0.000006 -0.000002 0.000001 0.000001 -0.000003 0.236750 0.110617 0.008291 0.000000 0.000005 0.000002 -0.000001 0.000005 0.000003 -0.000003 0.000001 0.000003 0.059407 -0.037723 -0.040263 0.000017 0.000003 -0.000013 -0.000010 -0.000004 0.000003 -0.000002 0.000008 0.000000 -0.104253 -0.243549 0.614789 -1.270035 27.704743 2.335738 -83.085495 54.812616 76.574214 -0.066828 -0.063100 0.875274 -0.000007 -0.000013 -0.000005 -0.266548 -0.080809 -0.003138 0.000009 0.000003 -0.000015 0.000001 -0.000001 0.000009 0.000005 0.000021 -0.000004 -0.272465 -0.013528 0.004984 0.000010 0.000007 -0.000010 -0.000005 -0.000006 -0.000000 0.000009 0.000010 -0.000004 -0.259270 0.054529 0.001970 0.000006 -0.000000 -0.000004 -0.000006 -0.000005 -0.000001 0.000002 0.000002 -0.000002 -0.239087 0.101635 -0.029373 0.000013 0.000008 -0.000004 0.000005 0.000000 0.000004 -0.000005 -0.000012 0.000008 -0.050878 -0.039802 -0.048990 0.000015 0.000009 -0.000003 -0.000006 -0.000008 -0.000006 -0.000007 -0.000012 0.000014 -0.353385 -0.001088 0.111920 -87.823529 44.233282 -12.417301 80.508580 4.858726 3.574173 0.879693 -0.325525 0.686585 -0.000012 -0.000016 -0.000003 0.280984 -0.017442 0.141581 -109.376074 -55.672701 -14.216581 81.217199 4.916200 3.569860 -0.690738 0.153661 -0.341026 -0.059803 -0.001156 -0.004742 
-0.058461 1.299643 1.485900 8.000312 24.475971 48.373370 -0.023841 0.135059 0.268999 -0.000002 -0.000008 0.000013 -2.037031 6.440193 -2.855335 -5.867915 21.754074 -8.899216 -0.051354 -0.035883 0.657358 -0.727035 0.663060 0.187118 4.948370 -0.884487 0.327639 0.015333 -0.241294 0.624254 0.189354 -10.380346 -0.727145 -67.710227 -28.442146 -11.503942 2.300552 1.340610 -24.534897 -94.989032 3.077182 4.460497 0.266567 -0.070745 0.039056 0.000008 -0.000003 0.000006 -0.000002 -0.000003 -0.000001 0.000002 0.000003 0.000002 0.268605 -0.003314 0.047808 0.000001 0.000008 0.000001 -0.000005 0.000001 0.000002 -0.000001 0.000007 -0.000002 0.253505 0.064209 0.042557 0.000001 0.000001 0.000002 -0.000005 -0.000005 0.000001 0.000002 -0.000002 -0.000001 0.236750 0.110618 0.008292 0.000004 0.000007 0.000003 -0.000001 0.000004 0.000005 -0.000005 -0.000001 0.000002 0.059407 -0.037723 -0.040263 0.000022 0.000009 -0.000011 -0.000007 0.000000 -0.000001 -0.000001 0.000004 0.000003 -0.104252 -0.243549 0.614789 -1.244105 27.351487 2.298443 -84.706333 55.175248 77.850926 -0.092575 -0.087888 1.217329 -0.000007 -0.000009 -0.000006 -0.266549 -0.080809 -0.003138 0.000008 0.000002 -0.000012 0.000000 -0.000004 0.000008 0.000002 0.000021 -0.000004 -0.272465 -0.013528 0.004984 0.000007 0.000007 -0.000005 -0.000002 -0.000007 -0.000008 0.000006 0.000009 -0.000002 -0.259270 0.054529 0.001970 0.000006 0.000000 -0.000002 0.000004 0.000000 -0.000003 0.000006 -0.000004 -0.000003 -0.239087 0.101635 -0.029373 0.000010 0.000008 -0.000006 0.000005 0.000000 0.000003 -0.000004 -0.000015 0.000008 -0.050879 -0.039803 -0.048990 0.000015 0.000009 -0.000005 -0.000003 -0.000006 -0.000005 -0.000005 -0.000016 0.000016 -0.353408 -0.001119 0.112325 -87.405139 44.077953 -12.944572 80.172337 4.831441 3.575973 0.932596 -0.400590 0.826247 -0.000013 -0.000016 -0.000004 0.280965 -0.017395 0.141690 -109.267242 -55.611229 -14.081128 81.015681 4.899862 3.571167 -0.746974 0.167664 -0.371013 -0.014646 -0.000306 -0.001165 
